HIERARCHY
ROOT ROOT
{
	OFFSET 0.000000 56.020000 -5.659234
	CHANNELS 6 Xposition Yposition Zposition Xrotation Yrotation Zrotation 
	JOINT C_spine0001_bind_JNT
	{
		OFFSET 0.000000 1.618999 0.000000
		CHANNELS 3 Xrotation Yrotation Zrotation
		JOINT C_spine0002_bind_JNT
		{
			OFFSET 0.000000 4.942001 0.000001
			CHANNELS 3 Xrotation Yrotation Zrotation
			JOINT C_spine0003_bind_JNT
			{
				OFFSET 0.000000 4.942001 -0.000000
				CHANNELS 3 Xrotation Yrotation Zrotation
				JOINT C_neck0001_bind_JNT
				{
					OFFSET 0.000000 17.026009 -0.000000
					CHANNELS 3 Xrotation Yrotation Zrotation
					JOINT C_neck0002_bind_JNT
					{
						OFFSET 0.000000 3.249985 0.000000
						CHANNELS 3 Xrotation Yrotation Zrotation
						JOINT C_head_bind_JNT
						{
							OFFSET 0.000000 5.278008 0.000000
							CHANNELS 3 Xrotation Yrotation Zrotation
							End Site
							{
								OFFSET 0.000000 0.000000 0.000000
							}
						}
					}
				}
				JOINT L_clavicle_bind_JNT
				{
					OFFSET 4.590000 12.067001 0.834000
					CHANNELS 3 Xrotation Yrotation Zrotation
					JOINT L_armUpper0001_bind_JNT
					{
						OFFSET 7.812635 0.512001 -3.452945
						CHANNELS 3 Xrotation Yrotation Zrotation
						JOINT L_armLower0001_bind_JNT
						{
							OFFSET 15.265892 -6.552116 -0.058157
							CHANNELS 3 Xrotation Yrotation Zrotation
							JOINT L_hand0001_bind_JNT
							{
								OFFSET 14.747667 -6.369995 5.049225
								CHANNELS 3 Xrotation Yrotation Zrotation
								End Site
								{
									OFFSET 0.000000 0.000000 0.000000
								}
							}
						}
					}
				}
				JOINT R_clavicle_bind_JNT
				{
					OFFSET -4.590000 12.067001 0.834000
					CHANNELS 3 Xrotation Yrotation Zrotation
					JOINT R_armUpper0001_bind_JNT
					{
						OFFSET -7.812635 0.512001 -3.452945
						CHANNELS 3 Xrotation Yrotation Zrotation
						JOINT R_armLower0001_bind_JNT
						{
							OFFSET -15.265890 -6.552124 -0.058160
							CHANNELS 3 Xrotation Yrotation Zrotation
							JOINT R_hand0001_bind_JNT
							{
								OFFSET -14.746784 -6.369629 5.048937
								CHANNELS 3 Xrotation Yrotation Zrotation
								End Site
								{
									OFFSET 0.000000 0.000000 0.000000
								}
							}
						}
					}
				}
			}
		}
	}
	JOINT C_pelvis0001_bind_JNT
	{
		OFFSET -0.000000 0.000000 0.000000
		CHANNELS 3 Xrotation Yrotation Zrotation
		JOINT L_legUpper0001_bind_JNT
		{
			OFFSET 6.599999 -6.027000 0.539000
			CHANNELS 3 Xrotation Yrotation Zrotation
			JOINT L_legLower0001_bind_JNT
			{
				OFFSET -0.140713 -19.187443 0.040261
				CHANNELS 3 Xrotation Yrotation Zrotation
				JOINT L_foot0001_bind_JNT
				{
					OFFSET -0.132215 -18.028637 -1.138370
					CHANNELS 3 Xrotation Yrotation Zrotation
					JOINT L_foot0002_bind_JNT
					{
						OFFSET 0.007014 -4.693133 9.886524
						CHANNELS 3 Xrotation Yrotation Zrotation
						End Site
						{
							OFFSET 0.000000 0.000000 0.000000
						}
					}
				}
			}
		}
		JOINT R_legUpper0001_bind_JNT
		{
			OFFSET -6.599999 -6.027000 0.539000
			CHANNELS 3 Xrotation Yrotation Zrotation
			JOINT R_legLower0001_bind_JNT
			{
				OFFSET 0.140710 -19.187164 0.040550
				CHANNELS 3 Xrotation Yrotation Zrotation
				JOINT R_foot0001_bind_JNT
				{
					OFFSET 0.132215 -18.028633 -1.138362
					CHANNELS 3 Xrotation Yrotation Zrotation
					JOINT R_foot0002_bind_JNT
					{
						OFFSET -0.007014 -4.693128 9.886505
						CHANNELS 3 Xrotation Yrotation Zrotation
						End Site
						{
							OFFSET 0.000000 0.000000 0.000000
						}
					}
				}
			}
		}
	}
}
MOTION
Frames: 12
Frame Time: 0.033333
0.000000 40.110146 0.000000 0.010306 7.496315 0.008608 -0.076669 -11.682661 1.139232 6.087706 5.013112 -2.161986 4.137903 5.245770 -1.276632 3.705397 0.130330 -0.661325 -2.160892 -0.663812 -0.423253 -14.821928 0.416743 4.027143 -4.765516 8.202942 -1.783815 -0.012144 13.881401 -65.619858 8.888034 7.935237 4.288000 1.947315 -36.499912 -24.029049 -5.075117 -14.701783 3.721327 3.082945 -8.031541 60.149837 5.470014 -6.146642 2.533155 -5.008070 22.554831 27.665627 1.260861 -12.474258 0.752354 -46.035725 -0.678609 12.149736 64.780052 2.854106 -7.025023 -16.979698 -6.587446 -3.644723 -2.536358 -0.232378 -0.708393 19.079971 1.538270 1.979088 28.620291 2.303413 -2.244953 -39.266521 -5.622585 -3.034981 -8.333469 0.297644 0.002982 
-0.129177 40.413231 0.029662 0.021586 7.318405 -0.027967 -0.396445 -11.358084 0.909959 7.497918 4.936128 -2.192296 3.810867 5.327410 -1.218881 3.592865 -0.146222 -1.313090 -2.545233 -1.785004 0.297941 -14.872688 -0.134475 3.932056 -4.653232 8.278493 -2.107739 -1.314014 15.082147 -63.662086 10.371801 7.529501 3.147579 1.249077 -38.495552 -26.107895 -5.505676 -14.935277 3.475199 3.107628 -8.809333 59.934669 6.936145 -5.803317 2.638744 -6.057825 23.054432 29.039473 1.238400 -12.112236 1.049155 -45.855453 0.444476 11.664110 64.569046 1.955577 -7.299215 -18.162117 -5.162815 -2.142456 -1.507149 -0.294188 -0.889219 20.219694 1.295948 2.355446 26.422281 1.780743 -0.642128 -40.835869 -4.633950 -4.111527 -6.852407 -0.159901 -0.196371 
-0.327391 40.326057 0.090815 0.004971 7.798038 0.006497 -0.660138 -11.701841 1.165615 7.421326 5.090677 -2.425911 4.180105 5.297261 -1.372073 3.667596 -0.180338 -0.976134 -2.301416 -2.051726 0.493820 -14.608084 0.109735 3.294131 -4.780760 8.809056 -2.080453 -1.049592 14.741842 -64.332130 10.372872 7.564155 4.021848 0.990445 -38.630985 -26.646732 -5.295375 -14.695251 3.666732 2.919631 -8.806380 60.080788 7.166224 -5.649849 2.173500 -5.218248 23.120296 28.504673 1.071304 -12.448029 1.227464 -46.832458 0.587183 12.199160 66.038765 0.898058 -7.103581 -18.987381 -5.043605 -2.286045 -0.885683 0.079416 -0.718373 21.430737 2.655596 2.572716 27.105886 1.919571 -0.688123 -42.369118 -5.724415 -5.052821 -7.123439 -0.234891 -0.032687 
-0.520023 40.267235 0.167251 0.001785 7.847639 0.002597 -0.580834 -11.660587 1.118994 7.516034 5.096437 -2.260645 4.094412 5.421412 -1.284517 3.924311 -0.151259 -1.080098 -2.370633 -2.299038 0.411622 -14.938603 0.171696 3.355851 -4.784817 8.733033 -2.194453 -1.218052 14.868213 -64.003838 10.524401 7.849741 3.891325 1.341233 -39.247044 -26.988922 -5.196468 -14.708568 3.617908 2.647970 -8.873196 60.215977 8.141485 -5.676098 1.764670 -5.929270 23.689718 28.829199 1.125152 -12.360374 1.192671 -47.078754 0.654866 12.432830 66.419243 0.015414 -6.656642 -19.382187 -4.246301 -2.356030 -0.983990 -0.074748 -0.601039 21.466249 2.714533 3.217342 27.143446 1.706973 -0.737934 -42.838867 -5.603389 -5.323344 -6.639898 -0.395216 -0.090352 
-0.676930 40.136070 0.224114 0.006990 8.018876 -0.005092 -0.567525 -11.647069 1.203637 7.686458 5.017481 -2.276961 4.099939 5.362882 -1.320378 4.117389 -0.090658 -0.918415 -2.552352 -2.357148 0.422342 -15.162313 0.194781 3.229472 -5.029885 8.845278 -2.021982 -0.990780 14.894233 -64.160713 10.483290 7.829769 3.990972 1.921244 -39.520237 -26.795252 -5.394604 -14.674874 3.597330 2.712548 -8.773183 60.244545 8.438476 -5.627098 1.691887 -6.120407 24.010670 28.970137 1.016963 -12.233668 1.295059 -47.139393 0.355479 12.301073 66.904007 -0.288927 -6.682030 -19.774487 -4.078690 -2.436883 -0.827832 0.003704 -0.543663 21.681206 2.787968 3.433536 27.116564 1.383697 -0.467099 -42.965862 -5.698087 -5.457503 -6.868286 -0.234448 -0.112187 
-0.783110 40.135941 0.255207 0.002888 7.978747 0.004593 -0.542606 -11.375756 1.256771 7.549016 4.913831 -2.270018 4.100644 5.323708 -1.182738 4.213429 -0.109578 -0.773147 -2.548819 -2.491626 0.318302 -15.405971 0.228271 3.208744 -4.989707 8.808290 -2.238981 -0.843709 15.094164 -64.080315 10.636578 8.017167 4.007051 1.765835 -39.877953 -26.852020 -5.236674 -14.610864 3.659572 2.503821 -8.787012 60.288425 8.777940 -5.708663 1.232017 -6.494713 24.274490 29.359833 1.108266 -11.973702 1.294223 -46.976112 0.217686 12.235453 66.717751 -0.299551 -6.432141 -19.645651 -4.243810 -2.757066 -1.024110 -0.046761 -0.545171 21.246357 2.759449 3.799666 27.545359 1.134347 -0.209859 -43.369633 -5.381640 -5.668182 -6.497507 -0.270204 -0.108488 
-0.832549 40.191196 0.237195 0.007720 7.823837 -0.004427 -0.564961 -11.005404 1.388573 7.676430 4.852026 -2.251137 4.126660 5.221124 -1.302374 4.303664 0.013309 -0.612964 -2.589110 -2.570097 0.327119 -15.553072 0.217124 3.229203 -5.238188 8.693870 -2.096726 -0.582799 15.076850 -64.262680 10.558194 8.435049 3.912099 1.570898 -39.987659 -26.751551 -5.240317 -14.648040 3.777811 2.329218 -8.826602 60.362606 9.136367 -5.789174 0.913256 -6.960276 24.533920 29.631332 0.996174 -11.553462 1.335341 -46.627357 -0.024861 11.743806 66.380814 -0.214812 -6.479960 -19.596279 -4.295218 -2.696218 -1.003508 -0.010864 -0.548561 21.063179 2.770531 3.964464 27.667635 0.937193 -0.024379 -43.259007 -5.339070 -5.835816 -6.576165 -0.267955 -0.139152 
-0.877055 40.259129 0.204173 0.005846 7.807071 -0.002240 -0.698633 -10.860900 1.448628 7.765795 4.840348 -2.216956 4.214757 5.124923 -1.289097 4.316726 0.042968 -0.700107 -2.611284 -2.722273 0.430990 -15.653799 0.409472 3.103983 -5.381356 8.745358 -2.120381 -0.504324 15.176438 -64.234238 10.413480 8.508385 3.876322 1.550941 -39.998550 -26.869106 -5.291014 -14.572416 3.708632 2.414229 -8.788087 60.438217 9.168567 -5.723381 0.815591 -7.088111 24.701738 29.602896 0.838206 -11.453507 1.383858 -46.238838 -0.072878 11.613359 66.071281 -0.277490 -6.378041 -19.581919 -4.451579 -2.740970 -1.056294 0.047959 -0.710481 21.113323 2.762645 3.992015 27.694557 0.973145 0.040829 -43.275139 -5.480636 -5.919377 -6.405544 -0.180655 -0.148271 
-0.918965 40.361202 0.170431 0.003799 7.858892 -0.001641 -0.685999 -10.890474 1.524520 7.791531 4.821533 -2.181120 4.234486 5.130537 -1.325740 4.402363 0.042102 -0.465371 -2.733829 -2.658524 0.244382 -15.905935 0.308060 3.061494 -5.438652 8.720922 -2.011651 -0.445771 15.222196 -64.244820 10.308903 8.434417 3.445886 1.620916 -39.935043 -26.430548 -5.230475 -14.626571 3.650775 2.202933 -8.572453 60.379810 9.176953 -5.853735 0.782767 -7.244993 24.693521 29.600546 0.840495 -11.476663 1.417781 -45.965996 -0.227407 11.348319 65.439888 -0.107095 -6.221418 -19.416239 -4.593410 -2.875871 -0.861956 0.002207 -0.747143 21.004984 2.681594 4.238391 27.667341 0.906444 -0.025232 -43.083473 -5.337957 -6.016347 -6.539091 -0.120807 -0.168210 
-0.912468 40.451103 0.155897 0.005421 7.887429 0.001353 -0.795474 -10.890216 1.532735 7.885857 4.785671 -2.199111 4.220507 5.124233 -1.246239 4.418520 0.031663 -0.472803 -2.761069 -2.652019 0.238622 -15.794320 0.480672 2.914308 -5.444757 8.797894 -2.091441 -0.454206 15.172269 -64.179726 10.249315 8.361912 3.286728 1.390539 -39.894005 -26.442381 -5.219815 -14.552548 3.612616 2.097594 -8.429437 60.301407 8.885702 -5.908484 0.682949 -7.407248 24.524796 29.580786 0.746662 -11.506583 1.388333 -45.571533 -0.202665 11.230289 65.305916 -0.209237 -6.160791 -19.610126 -4.692573 -2.898138 -0.852572 -0.075678 -0.681189 20.881416 2.611748 4.356709 27.819763 0.943621 -0.211033 -43.083012 -5.326921 -6.025173 -6.429163 -0.129775 -0.215731 
-0.882807 40.544338 0.162625 0.005315 7.988271 -0.003560 -0.776954 -10.967102 1.552647 7.887273 4.762648 -2.177213 4.152326 5.106628 -1.164249 4.375067 0.046480 -0.476840 -2.676823 -2.673465 0.226663 -15.909577 0.316199 2.922102 -5.452893 8.715173 -2.020956 -0.355336 15.206085 -64.308723 10.036782 8.231114 3.037256 1.264452 -39.581440 -26.218479 -5.225850 -14.536343 3.545309 2.005748 -8.234709 60.206726 8.773069 -6.262225 0.475741 -7.387921 24.411896 29.519314 0.739501 -11.628242 1.469986 -45.279961 -0.000082 10.744149 65.114174 -0.168122 -5.880211 -19.826513 -4.698616 -2.822660 -0.868787 -0.071949 -0.794370 20.695377 2.342759 4.522719 27.980991 0.997482 -0.444633 -43.000435 -5.041605 -6.044747 -6.361640 -0.062325 -0.327178 
-0.830511 40.601643 0.166168 0.009128 7.774544 -0.008127 -0.804183 -10.710849 1.574813 7.877593 4.712590 -2.123540 4.236082 5.123676 -1.209571 4.395531 0.059969 -0.409875 -2.690497 -2.745549 0.234307 -15.863208 0.423669 2.824709 -5.449608 8.617636 -1.981327 -0.321247 15.131611 -64.230202 10.002907 8.021525 2.806835 1.132415 -39.399803 -26.025948 -5.238365 -14.513118 3.469645 2.049725 -8.108446 60.172592 8.500078 -6.442804 0.458478 -7.185676 24.267633 29.314217 0.673624 -11.347743 1.455545 -44.839146 -0.094274 10.550080 64.848083 -0.073175 -5.908667 -19.897074 -4.892582 -2.849432 -0.931472 -0.160069 -0.771798 20.595552 2.279074 4.580657 28.085577 1.026035 -0.598816 -42.942112 -4.971304 -5.999549 -6.429584 -0.012567 -0.261225 
